<svg width="512" height="256" viewBox="0 0 512 256" xmlns="http://www.w3.org/2000/svg">
  <!-- Background -->
  <defs>
    <linearGradient id="bgGradient" x1="0%" y1="0%" x2="100%" y2="100%">
      <stop offset="0%" stop-color="#000000"/>
      <stop offset="100%" stop-color="#111111"/>
    </linearGradient>

    <!-- Gold bevel gradient -->
    <linearGradient id="goldBevel" x1="0%" y1="0%" x2="0%" y2="100%">
      <stop offset="0%" stop-color="#FFF7D1"/>
      <stop offset="25%" stop-color="#FFE28A"/>
      <stop offset="55%" stop-color="#D4AF37"/>
      <stop offset="100%" stop-color="#8B6B1F"/>
    </linearGradient>

    <!-- Inner highlight for 3D effect -->
    <radialGradient id="goldHighlight" cx="50%" cy="35%" r="60%">
      <stop offset="0%" stop-color="#FFFFFF" stop-opacity="0.9"/>
      <stop offset="40%" stop-color="#FFD700" stop-opacity="0.5"/>
      <stop offset="100%" stop-color="#B8860B" stop-opacity="0"/>
    </radialGradient>

    <!-- Soft shadow under star -->
    <radialGradient id="shadow" cx="50%" cy="50%" r="50%">
      <stop offset="0%" stop-color="#000000" stop-opacity="0.35"/>
      <stop offset="100%" stop-color="#000000" stop-opacity="0"/>
    </radialGradient>
  </defs>

  <rect width="512" height="256" fill="url(#bgGradient)"/>

  <!-- Star shadow -->
  <ellipse cx="130" cy="155" rx="55" ry="18" fill="url(#shadow)"/>

  <!-- 3D 5-point star -->
  <g transform="translate(130,128) scale(1.2)">
    <!-- Base bevel layer -->
    <polygon
      points="0,-55 17,-18 53,-18 22,7 33,45 0,23 -33,45 -22,7 -53,-18 -17,-18"
      fill="url(#goldBevel)"
    />
    <!-- Inner highlight layer -->
    <polygon
      points="0,-40 12,-12 36,-12 16,4 24,30 0,15 -24,30 -16,4 -36,-12 -12,-12"
      fill="url(#goldHighlight)"
    />
  </g>

  <!-- Text (closer to star) -->
  <text x="46%" y="50%" dominant-baseline="middle" text-anchor="left"
        font-family="Segoe UI, system-ui, -apple-system, BlinkMacSystemFont, sans-serif"
        font-size="82"
        fill="url(#goldBevel)"
        font-weight="600"
        letter-spacing="1.5">
    AStar
  </text>
</svg>
