<svg width="512" height="512" viewBox="0 0 512 512" xmlns="http://www.w3.org/2000/svg">
  <defs>
    <linearGradient id="bgGradient" x1="0%" y1="0%" x2="100%" y2="100%">
      <stop offset="0%" stop-color="#000000"/>
      <stop offset="100%" stop-color="#111111"/>
    </linearGradient>

    <linearGradient id="goldBevel" x1="0%" y1="0%" x2="0%" y2="100%">
      <stop offset="0%" stop-color="#FFF7D1"/>
      <stop offset="25%" stop-color="#FFE28A"/>
      <stop offset="55%" stop-color="#D4AF37"/>
      <stop offset="100%" stop-color="#8B6B1F"/>
    </linearGradient>

    <radialGradient id="goldHighlight" cx="50%" cy="35%" r="60%">
      <stop offset="0%" stop-color="#FFFFFF" stop-opacity="0.9"/>
      <stop offset="40%" stop-color="#FFD700" stop-opacity="0.5"/>
      <stop offset="100%" stop-color="#B8860B" stop-opacity="0"/>
    </radialGradient>
  </defs>

  <rect width="512" height="512" fill="url(#bgGradient)"/>

  <!-- Star -->
  <g transform="translate(256,200) scale(1.4)">
    <polygon
      points="0,-55 17,-18 53,-18 22,7 33,45 0,23 -33,45 -22,7 -53,-18 -17,-18"
      fill="url(#goldBevel)"
    />
    <polygon
      points="0,-40 12,-12 36,-12 16,4 24,30 0,15 -24,30 -16,4 -36,-12 -12,-12"
      fill="url(#goldHighlight)"
    />
  </g>

  <!-- Text -->
  <text x="50%" y="380" text-anchor="middle"
        font-family="Segoe UI, sans-serif"
        font-size="90"
        fill="url(#goldBevel)"
        font-weight="600"
        letter-spacing="2">
    AStar
  </text>
</svg>
